<?xml version="1.0" encoding="UTF-8"?>
<svg width="60px" height="60px" viewBox="0 0 60 60" version="1.1" xmlns="http://www.w3.org/2000/svg" xmlns:xlink="http://www.w3.org/1999/xlink">
    <!-- Generator: Sketch 50.2 (55047) - http://www.bohemiancoding.com/sketch -->
    <title>Icon 2</title>
    <desc>Created with Sketch.</desc>
    <defs></defs>
    <g id="Icon-2" stroke="none" stroke-width="1" fill="none" fill-rule="evenodd">
        <circle id="Background" fill="#281928" cx="30" cy="30" r="30"></circle>
        <g id="Shelves" transform="translate(17.000000, 12.000000)" fill="#FFFFFF">
            <rect id="Rectangle-2-Copy" x="24" y="0" width="2" height="37"></rect>
            <rect id="Rectangle-2-Copy-3" x="2" y="34" width="22" height="1"></rect>
            <rect id="Rectangle-2-Copy-4" x="2" y="2" width="22" height="1"></rect>
            <rect id="Rectangle-2-Copy-5" x="2" y="18" width="22" height="1"></rect>
            <rect id="Rectangle-2-Copy-6" x="2" y="10" width="22" height="1"></rect>
            <rect id="Rectangle-2-Copy-7" x="2" y="26" width="22" height="1"></rect>
            <rect id="Rectangle-2-Copy-2" x="0" y="0" width="2" height="37"></rect>
        </g>
        <g id="Books-(shelf-1)" transform="translate(19.000000, 40.000000)" fill="#FFFFFF">
            <rect id="Rectangle-2" transform="translate(18.000000, 4.000000) scale(-1, 1) translate(-18.000000, -4.000000) " x="17" y="2" width="2" height="4"></rect>
            <rect id="Rectangle-2-Copy-8" transform="translate(16.000000, 3.500000) scale(-1, 1) translate(-16.000000, -3.500000) " x="15" y="1" width="2" height="5"></rect>
            <rect id="Rectangle-2-Copy-14" transform="translate(20.000000, 3.000000) scale(-1, 1) translate(-20.000000, -3.000000) " x="19" y="0" width="2" height="6"></rect>
            <rect id="Rectangle-2-Copy-15" transform="translate(0.500000, 3.000000) scale(-1, 1) translate(-0.500000, -3.000000) " x="0" y="0" width="1" height="6"></rect>
            <rect id="Rectangle-2-Copy-17" transform="translate(2.500000, 4.000000) scale(-1, 1) translate(-2.500000, -4.000000) " x="2" y="2" width="1" height="4"></rect>
            <rect id="Rectangle-2-Copy-20" x="10" y="2" width="1" height="4"></rect>
            <rect id="Rectangle-2-Copy-18" transform="translate(1.500000, 4.500000) scale(-1, 1) translate(-1.500000, -4.500000) " x="1" y="3" width="1" height="3"></rect>
            <rect id="Rectangle-2-Copy-21" x="11" y="3" width="1" height="3"></rect>
            <rect id="Rectangle-2-Copy-23" transform="translate(5.000000, 4.000000) scale(-1, 1) translate(-5.000000, -4.000000) " x="4" y="2" width="2" height="4"></rect>
            <rect id="Rectangle-2-Copy-19" transform="translate(3.500000, 4.500000) scale(-1, 1) translate(-3.500000, -4.500000) " x="3" y="3" width="1" height="3"></rect>
            <rect id="Rectangle-2-Copy-16" x="12" y="1" width="2" height="5"></rect>
            <rect id="Rectangle-2-Copy-9" transform="translate(14.500000, 4.000000) scale(-1, 1) translate(-14.500000, -4.000000) " x="14" y="2" width="1" height="4"></rect>
            <rect id="Rectangle-2-Copy-22" transform="translate(6.500000, 3.500000) scale(-1, 1) translate(-6.500000, -3.500000) " x="6" y="1" width="1" height="5"></rect>
            <rect id="Rectangle-2-Copy-10" transform="translate(9.500000, 3.500000) scale(-1, 1) translate(-9.500000, -3.500000) " x="9" y="1" width="1" height="5"></rect>
            <rect id="Rectangle-2-Copy-11" transform="translate(8.500000, 3.500000) scale(-1, 1) translate(-8.500000, -3.500000) " x="8" y="1" width="1" height="5"></rect>
            <rect id="Rectangle-2-Copy-12" transform="translate(7.500000, 4.000000) scale(-1, 1) translate(-7.500000, -4.000000) " x="7" y="2" width="1" height="4"></rect>
            <rect id="Rectangle-2-Copy-13" transform="translate(21.500000, 4.500000) scale(-1, 1) translate(-21.500000, -4.500000) " x="21" y="3" width="1" height="3"></rect>
        </g>
        <g id="Books-(shelf-2)" transform="translate(19.000000, 32.000000)" fill="#FFFFFF">
            <rect id="Rectangle-2" x="0" y="2" width="2" height="4"></rect>
            <rect id="Rectangle-2-Copy-8" x="2" y="1" width="2" height="5"></rect>
            <rect id="Rectangle-2-Copy-14" x="9" y="1" width="2" height="5"></rect>
            <rect id="Rectangle-2-Copy-15" x="14" y="0" width="1" height="6"></rect>
            <rect id="Rectangle-2-Copy-17" x="12" y="2" width="1" height="4"></rect>
            <rect id="Rectangle-2-Copy-20" x="15" y="2" width="1" height="4"></rect>
            <rect id="Rectangle-2-Copy-18" x="13" y="3" width="1" height="3"></rect>
            <rect id="Rectangle-2-Copy-21" x="16" y="3" width="1" height="3"></rect>
            <rect id="Rectangle-2-Copy-23" x="20" y="3" width="2" height="3"></rect>
            <rect id="Rectangle-2-Copy-19" x="11" y="3" width="1" height="3"></rect>
            <rect id="Rectangle-2-Copy-16" x="17" y="1" width="2" height="5"></rect>
            <rect id="Rectangle-2-Copy-9" x="4" y="2" width="1" height="4"></rect>
            <rect id="Rectangle-2-Copy-22" x="19" y="2" width="1" height="4"></rect>
            <rect id="Rectangle-2-Copy-10" x="5" y="1" width="1" height="5"></rect>
            <rect id="Rectangle-2-Copy-11" x="6" y="1" width="1" height="5"></rect>
            <rect id="Rectangle-2-Copy-12" x="7" y="2" width="1" height="4"></rect>
            <rect id="Rectangle-2-Copy-13" x="8" y="3" width="1" height="3"></rect>
        </g>
        <g id="Books-(shelf-3)" transform="translate(19.000000, 24.000000)" fill="#FFFFFF">
            <rect id="Rectangle-2" transform="translate(12.000000, 4.500000) scale(-1, 1) translate(-12.000000, -4.500000) " x="11" y="3" width="2" height="3"></rect>
            <rect id="Rectangle-2-Copy-8" transform="translate(3.500000, 3.500000) scale(-1, 1) translate(-3.500000, -3.500000) " x="3" y="1" width="1" height="5"></rect>
            <rect id="Rectangle-2-Copy-14" transform="translate(14.000000, 3.000000) scale(-1, 1) translate(-14.000000, -3.000000) " x="13" y="0" width="2" height="6"></rect>
            <rect id="Rectangle-2-Copy-15" x="6" y="0" width="1" height="6"></rect>
            <rect id="Rectangle-2-Copy-17" x="5" y="2" width="1" height="4"></rect>
            <rect id="Rectangle-2-Copy-20" x="19" y="2" width="1" height="4"></rect>
            <rect id="Rectangle-2-Copy-18" x="4" y="3" width="1" height="3"></rect>
            <rect id="Rectangle-2-Copy-21" x="20" y="3" width="1" height="3"></rect>
            <rect id="Rectangle-2-Copy-23" transform="translate(9.000000, 4.000000) scale(-1, 1) translate(-9.000000, -4.000000) " x="8" y="2" width="2" height="4"></rect>
            <rect id="Rectangle-2-Copy-19" transform="translate(7.500000, 4.500000) scale(-1, 1) translate(-7.500000, -4.500000) " x="7" y="3" width="1" height="3"></rect>
            <rect id="Rectangle-2-Copy-16" x="0" y="1" width="2" height="5"></rect>
            <rect id="Rectangle-2-Copy-9" transform="translate(2.500000, 4.000000) scale(-1, 1) translate(-2.500000, -4.000000) " x="2" y="2" width="1" height="4"></rect>
            <rect id="Rectangle-2-Copy-22" transform="translate(10.500000, 3.500000) scale(-1, 1) translate(-10.500000, -3.500000) " x="10" y="1" width="1" height="5"></rect>
            <rect id="Rectangle-2-Copy-10" transform="translate(18.500000, 4.000000) scale(-1, 1) translate(-18.500000, -4.000000) " x="18" y="2" width="1" height="4"></rect>
            <rect id="Rectangle-2-Copy-11" transform="translate(17.500000, 3.500000) scale(-1, 1) translate(-17.500000, -3.500000) " x="17" y="1" width="1" height="5"></rect>
            <rect id="Rectangle-2-Copy-12" transform="translate(16.500000, 4.000000) scale(-1, 1) translate(-16.500000, -4.000000) " x="16" y="2" width="1" height="4"></rect>
            <rect id="Rectangle-2-Copy-13" transform="translate(15.500000, 4.500000) scale(-1, 1) translate(-15.500000, -4.500000) " x="15" y="3" width="1" height="3"></rect>
            <rect id="Rectangle-2-Copy-24" transform="translate(21.500000, 4.500000) scale(-1, 1) translate(-21.500000, -4.500000) " x="21" y="3" width="1" height="3"></rect>
        </g>
        <g id="Books-(shelf-4)" transform="translate(19.000000, 17.000000)" fill="#FFFFFF">
            <rect id="Rectangle-2" x="3" y="3" width="2" height="2"></rect>
            <rect id="Rectangle-2-Copy-8" x="13" y="1" width="1" height="4"></rect>
            <rect id="Rectangle-2-Copy-14" x="5" y="2" width="2" height="3"></rect>
            <rect id="Rectangle-2-Copy-15" x="8" y="0" width="1" height="5"></rect>
            <rect id="Rectangle-2-Copy-17" x="9" y="2" width="1" height="3"></rect>
            <rect id="Rectangle-2-Copy-20" x="16" y="2" width="1" height="3"></rect>
            <rect id="Rectangle-2-Copy-18" x="14" y="3" width="1" height="2"></rect>
            <rect id="Rectangle-2-Copy-21" x="17" y="3" width="1" height="2"></rect>
            <rect id="Rectangle-2-Copy-23" x="0" y="2" width="2" height="3"></rect>
            <rect id="Rectangle-2-Copy-19" x="7" y="3" width="1" height="2"></rect>
            <rect id="Rectangle-2-Copy-16" x="10" y="1" width="2" height="4"></rect>
            <rect id="Rectangle-2-Copy-9" x="12" y="2" width="1" height="3"></rect>
            <rect id="Rectangle-2-Copy-22" x="2" y="1" width="1" height="4"></rect>
            <rect id="Rectangle-2-Copy-10" x="15" y="2" width="1" height="3"></rect>
            <rect id="Rectangle-2-Copy-11" x="18" y="1" width="1" height="4"></rect>
            <rect id="Rectangle-2-Copy-12" x="20" y="2" width="1" height="3"></rect>
            <rect id="Rectangle-2-Copy-13" x="19" y="3" width="1" height="2"></rect>
            <rect id="Rectangle-2-Copy-24" x="21" y="3" width="1" height="2"></rect>
        </g>
    </g>
</svg>